<svg height="512" viewBox="0 0 511.996 511.996" width="512" xmlns="http://www.w3.org/2000/svg"><path d="M239.548 104.742v29.254h51v23l11.185 15-11.185 15v30l11.185 15-11.185 15v30l8.185 16-8.185 14v30l6.185 15-6.185 15v30l5.185 15-5.185 15v85h62.5l11.685-339L353.048 0z" fill="#a8e62e"/><path d="M353.048 0v511.996h62.5v-378h51v-29.254z" fill="#7acc29"/><path d="M290.548 156.996h62.5v30h-62.5zm0 60h62.5v30h-62.5zm0 60h62.5v30h-62.5zm0 60h62.5v30h-62.5zm0 60h62.5v30h-62.5z" fill="#e9f6ff"/><path d="M112.918 172.501c-37.262 0-67.47 30.207-67.47 67.47v89.674l34.285 20.352 33.185-20.352 9.815-76.648z" fill="#f93"/><path d="M180.388 239.97c0-37.262-30.207-67.47-67.47-67.47v157.143l32.815 14.352 34.655-14.352z" fill="#ff7133"/><path d="M112.918 68.996c-23.151 0-41.919 18.768-41.919 41.919v19.666c0 23.151 18.768 41.919 41.919 41.919l8.815-54.505z" fill="#ffddce"/><path d="M112.918 172.501c23.151 0 41.919-18.768 41.919-41.919v-19.666c0-23.151-18.768-41.919-41.919-41.919z" fill="#ffccbd"/><path d="M45.448 329.644v182.352h67.47l13.264-79.699-13.264-102.653z" fill="#0081ff"/><path d="M112.918 329.644v182.352h67.47V329.644z" fill="#05f"/></svg>