<svg xmlns="http://www.w3.org/2000/svg" viewBox="0 0 512 512"><path d="M302.372 121.931a310.171 310.171 0 01-92.744 0c-57.571-8.705-115.65 12.211-154.453 55.622l-1.249 1.398a172.555 172.555 0 0021.32 250.11l1.34 1.064a338.752 338.752 0 00179.396 72.059l.031-.003a338.759 338.759 0 00179.408-72.06l1.335-1.06a172.555 172.555 0 0065.224-135.113 172.555 172.555 0 00-43.903-114.996l-1.249-1.398c-38.806-43.412-96.885-64.328-154.456-55.623z" fill="#ff5a5a"/><g fill="#a5dc69"><path d="M255.981 255.969c36.076-23.859 31.345-54.399 31.345-54.399s12.42 11.93 37.259 8.59 49.679 13.838 49.679 13.838-5.915-47.241-47.313-65.374c30.163-6.204 32.528-25.768 70.97-38.174-63.873-39.607-141.941.654-141.941.654s-78.067-40.261-141.941-.654c38.442 12.407 40.808 31.971 70.97 38.174-41.4 18.133-47.313 65.374-47.313 65.374s24.839-17.179 49.679-13.838 37.259-8.59 37.259-8.59-4.729 30.54 31.347 54.399z"/><path d="M235.99 134.567v-19.314a101.269 101.269 0 0136.632-77.958l27.211-22.561c7.941-6.584 19.505-6.361 27.185.524 9.562 8.571 9.163 23.669-.839 31.722l-10.492 8.447a101.267 101.267 0 00-37.76 78.88l-41.937.26z"/></g><path d="M465.537 172.291l-1.254-1.403c-16.504-18.464-36.611-33.328-58.955-43.75 1.354-1.5 2.268-3.39 2.522-5.478a10.001 10.001 0 00-4.657-9.711c-30.981-19.21-74.7-25.617-106.316-17.154 5.804-12.091 14.295-22.893 25.085-31.579l10.49-8.446a30.77 30.77 0 0011.483-23.192 30.771 30.771 0 00-10.24-23.768c-11.28-10.111-28.582-10.443-40.244-.775L266.24 29.596c-21.565 17.88-35.376 42.877-39.18 70.192-33.59-9.78-73.729-15.47-118.289 12.161a10 10 0 00-4.657 9.711 9.972 9.972 0 002.517 5.472 182.391 182.391 0 00-26.102 14.899c-4.555 3.124-5.715 9.35-2.591 13.904a9.99 9.99 0 008.257 4.345 9.962 9.962 0 005.648-1.754c12.13-8.32 25.315-14.919 39.23-19.692 6.047 3.554 10.82 7.3 15.496 10.981 4.812 3.789 9.709 7.645 15.672 10.982-29.292 23.499-34.237 60.132-34.466 61.957a10 10 0 0015.612 9.467c.216-.149 22.224-14.899 42.657-12.152 12.432 1.672 22.396.002 29.797-2.521 2.876 13.102 11.288 31.328 34.624 46.76a9.994 9.994 0 005.517 1.659 9.994 9.994 0 005.517-1.659c23.336-15.433 31.748-33.658 34.624-46.76 7.399 2.522 17.363 4.191 29.797 2.52 20.596-2.768 42.457 12.016 42.657 12.152a10 10 0 0015.612-9.467c-.229-1.824-5.174-38.457-34.466-61.957 5.964-3.338 10.86-7.194 15.672-10.982 4.679-3.684 9.457-7.433 15.51-10.99 26.303 9.021 49.934 24.66 68.463 45.391l1.254 1.403a162.36 162.36 0 0141.355 108.327c0 49.87-22.396 96.263-61.444 127.282l-1.523 1.21c-49.852 39.602-109.663 63.691-173.026 69.698-63.418-6.067-123.283-30.207-173.18-69.845l-1.34-1.064c-39.049-31.02-61.444-77.412-61.444-127.282 0-25.206 5.981-50.438 17.296-72.965 2.479-4.935.487-10.947-4.448-13.425-4.938-2.48-10.946-.487-13.426 4.448C6.736 237.302.019 265.637.019 293.945c0 27.318 6.277 54.762 18.153 79.363s29.46 46.587 50.851 63.581l1.341 1.064c53.188 42.253 117.053 67.72 184.692 74.001a9.856 9.856 0 001.841.001c67.589-6.219 131.408-31.636 184.554-73.855l1.523-1.21c21.391-16.993 38.975-38.979 50.852-63.581s18.153-52.046 18.153-79.364c0-44.939-16.494-88.144-46.442-121.654zm-112.514-38.19c-8.597 6.769-15.386 12.115-28.086 14.726a10.002 10.002 0 00-1.997 18.957c19.056 8.347 29.567 24.169 35.226 37.1-9.957-3.612-22.325-6.329-34.912-4.636-18.607 2.503-28.083-5.115-29.053-5.946-3.032-3.076-7.583-3.736-11.456-1.808-3.897 1.941-5.968 6.305-5.3 10.607.035.227 2.972 21.386-21.461 40.555-23.561-18.508-21.644-39.02-21.456-40.605.752-4.312-1.285-8.621-5.183-10.62-3.889-1.996-8.519-1.238-11.582 1.871-.971.831-10.448 8.446-29.053 5.946-12.626-1.7-25.034 1.041-35.007 4.67 5.617-12.911 16.118-28.724 35.32-37.134a10.002 10.002 0 00-1.997-18.957c-12.699-2.611-19.489-7.958-28.086-14.726-5.702-4.488-12.26-9.652-21.349-14.54 31.363-12.814 61.62-7.423 87.891.428.172.051.338.083.506.125v14.453c0 5.523 4.478 10.001 10.001 10.001s10.001-4.477 10.001-10.001v-19.314c0-27.254 12.033-52.863 33.015-70.258l27.211-22.561c4.092-3.394 10.166-3.278 14.127.272 2.403 2.154 3.68 5.117 3.595 8.344-.086 3.226-1.517 6.118-4.031 8.142l-10.491 8.447c-26.366 21.229-41.489 52.819-41.489 86.67 0 5.523 4.478 10.001 10.001 10.001 5.522 0 10.001-4.477 10.001-10.001 0-5.12.425-10.178 1.249-15.131.102-.052.207-.096.308-.152 11.057-6.166 28.198-8.908 47.025-7.529 13.023.955 25.83 3.811 37.476 8.274-8.89 4.824-15.344 9.904-20.964 14.33z"/><path d="M47.263 186.408a9.96 9.96 0 006.659 2.542 9.978 9.978 0 007.462-3.337l1.252-1.402c3.677-4.12 3.304-10.425-.814-14.102-4.118-3.678-10.454-3.306-14.133.813l-1.22 1.365c-3.68 4.12-3.325 10.441.794 14.121zm250.219 278.27c.804 0 1.62-.098 2.435-.301 42.758-10.696 82.005-30.075 116.648-57.595l1.527-1.212c4.326-3.434 5.049-9.725 1.615-14.051-3.433-4.325-9.725-5.049-14.05-1.615l-1.531 1.215c-32.398 25.736-69.091 43.857-109.064 53.855-5.357 1.34-8.615 6.771-7.275 12.129 1.138 4.542 5.215 7.575 9.695 7.575zm-45.176 7.672c.309 0 .62-.014.933-.043l.858-.081c5.498-.528 9.527-5.413 8.999-10.912a9.998 9.998 0 00-10.911-8.999l-.788.074c-5.5.509-9.547 5.379-9.037 10.88.479 5.188 4.837 9.081 9.946 9.081z"/></svg>