<svg xmlns="http://www.w3.org/2000/svg" viewBox="0 0 512 512"><path d="M426.667 283.584v-13.163l68.693-85.888A76.096 76.096 0 00512 137.109c-.012-16.808-13.635-30.431-30.443-30.443H406.72a28.609 28.609 0 00-26.475 17.536 547.412 547.412 0 01-56.747 113.216 22.166 22.166 0 01-24.853 1.707v-109.12c-.07-12.852-10.465-23.257-23.317-23.339h-93.995a10.667 10.667 0 00-7.552 18.219l5.845 5.845a41.942 41.942 0 0112.373 29.824v81.067a7.034 7.034 0 01-3.691 1.984 16.253 16.253 0 01-10.091-5.76 931.284 931.284 0 01-72.704-125.333 10.666 10.666 0 00-9.515-5.845H27.733C12.417 106.667 0 119.083 0 134.4v5.44a120.66 120.66 0 0018.112 63.68c57.216 92.053 135.68 201.813 184.555 201.813h69.781c14.47-.023 26.195-11.748 26.219-26.219v-18.261c-.005-10.769 8.721-19.503 19.49-19.507a19.499 19.499 0 0113.811 5.726l44.288 44.288a47.528 47.528 0 0033.792 13.973h76.117c14.245-.021 25.775-11.585 25.754-25.83a25.792 25.792 0 00-7.535-18.181l-77.717-77.738z" fill="#01579b"/></svg>