<svg height="512" viewBox="0 0 512.002 512.002" width="512" xmlns="http://www.w3.org/2000/svg"><g clip-rule="evenodd" fill-rule="evenodd"><path d="M66.002 256.001c0-104.934 85.066-190 190-190s190 85.066 190 190-85.066 190-190 190-190-85.066-190-190zM302.627 28.536L275.463 14.91c-11.694-6.276-26.205-6.782-38.793-.068L212.29 27.91l-30.062-2.175c-13.436-1.51-27.34 3.612-36.539 14.854l-17.738 21.663-26.173 8.688c-13.892 3.238-25.719 13.607-30.14 28.243l-8.08 26.745-23.478 20.311c-9.92 8.434-15.682 21.432-14.311 35.372l2.766 27.765-13.625 27.163c-6.276 11.694-6.782 26.205-.068 38.793l13.068 24.38-2.175 30.062c-1.51 13.436 3.612 27.34 14.854 36.539l21.663 17.738 8.688 26.173c3.238 13.892 13.608 25.719 28.243 30.14l26.745 8.08 20.311 23.478c8.435 9.92 21.432 15.682 35.372 14.311l27.763-2.768 27.165 13.626c11.692 6.277 26.205 6.784 38.792.069l24.381-13.068 30.062 2.175c13.436 1.51 27.34-3.612 36.539-14.854l17.738-21.663 26.173-8.688c13.892-3.238 25.719-13.608 30.141-28.243l8.08-26.745 23.478-20.311c9.92-8.435 15.682-21.432 14.311-35.372l-2.767-27.762 13.626-27.165c6.277-11.692 6.784-26.205.069-38.792l-13.068-24.381 2.175-30.062c1.51-13.436-3.612-27.34-14.854-36.539l-21.663-17.738-8.688-26.173c-3.238-13.892-13.607-25.719-28.243-30.141l-26.745-8.08-20.312-23.478c-8.435-9.92-21.432-15.682-35.372-14.311z" fill="#ffc144"/><circle cx="256.001" cy="256.001" fill="#fff2a0" r="190"/><path d="M292.008 206.042c-11.059-10.657-14.945-27.273-9.413-40.587 6.066-14.601 5.831-26.134-1.062-39.219-6.999-13.285-30.569-24.017-33.822-8.052-1.463 7.182.935 22.8-9.537 42.863-11.918 22.832-.108 51.555-34.601 51.555V350.35c23.691 0 47.382 13.12 71.074 13.12h57.73c29.454 0 37.395-31.691 27.537-41.142 14.834-6.282 19.39-27.541 11.374-37.829 15.588-7.688 17.397-31.943 7.011-37.691 11.286-.245 20.521-9.304 20.521-20.127 0-12.104-9.619-20.642-21.034-20.642z" fill="#ffdcd5"/><path d="M203.573 350.35V205.793h-52.837v151.366h52.837z" fill="#8481e2"/></g><path d="M303.029 61.578a9.996 9.996 0 00-12.065 7.378c-1.294 5.369 2.009 10.771 7.378 12.065C379.394 100.56 436.001 172.514 436.001 256c0 99.252-80.747 180-180 180s-180-80.748-180-180c0-83.483 56.604-155.437 137.652-174.978 5.369-1.295 8.672-6.697 7.378-12.065-1.295-5.369-6.699-8.67-12.065-7.378-42.88 10.339-81.729 35.126-109.39 69.795C71.069 167.103 56.001 210.198 56.001 256c0 110.28 89.72 200 200 200s200-89.719 200-200c0-45.803-15.068-88.899-43.577-124.629-27.662-34.668-66.513-59.455-109.395-69.793z"/><path d="M505.976 231.948l-11.699-21.827 1.951-26.984c1.876-17.296-5.023-34.176-18.479-45.184l-19.42-15.902-7.639-23.012c-4.278-17.595-17.641-31.737-34.979-36.974l-23.971-7.242-18.358-21.22A51.175 51.175 0 00329.4 15.819l-24.88 2.479-24.457-12.269c-15.072-8.035-33.042-8.042-48.116-.001l-21.826 11.698-26.983-1.952c-17.303-1.876-34.177 5.024-45.184 18.479l-15.903 19.42-23.011 7.639C81.444 65.59 67.302 78.953 62.065 96.29l-7.241 23.971-21.22 18.359a51.17 51.17 0 00-17.785 43.982l2.479 24.88-12.269 24.457c-8.036 15.073-8.042 33.042-.002 48.117l11.699 21.826-1.952 26.984c-1.875 17.296 5.024 34.175 18.479 45.184l19.42 15.902 7.639 23.012c4.277 17.595 17.64 31.737 34.979 36.974l23.97 7.241L138.62 478.4a51.165 51.165 0 0043.982 17.784l24.879-2.479 24.455 12.267a51.108 51.108 0 0024.067 6.031 51.059 51.059 0 0024.051-6.027l21.827-11.698 26.983 1.952c17.295 1.872 34.175-5.024 45.185-18.479l15.902-19.42 23.013-7.638c17.594-4.278 31.735-17.641 36.972-34.979l7.242-23.97 21.221-18.359a51.17 51.17 0 0017.785-43.983l-2.48-24.878 12.268-24.457c8.036-15.074 8.044-33.044.004-48.119zm-17.695 38.786a9.632 9.632 0 00-.128.246l-13.626 27.165a10.007 10.007 0 00-1.013 5.476l2.767 27.75c.998 10.147-3.053 20.157-10.902 26.831l-23.478 20.312a9.994 9.994 0 00-3.029 4.67l-8.081 26.745c-3.221 10.664-11.972 18.863-22.837 21.396a9.9 9.9 0 00-.88.248L380.9 440.26a10.001 10.001 0 00-4.587 3.156l-17.74 21.666c-6.738 8.236-17.089 12.442-27.681 11.25a10.794 10.794 0 00-.396-.037l-30.062-2.174a9.997 9.997 0 00-5.445 1.16l-24.364 13.058c-9.188 4.9-20.162 4.88-29.357-.057-.082-.043-.164-.086-.246-.127l-27.164-13.626a10.005 10.005 0 00-5.476-1.013l-27.75 2.765c-10.146 1.002-20.157-3.053-26.831-10.901l-20.312-23.478a9.989 9.989 0 00-4.671-3.03l-26.745-8.079c-10.665-3.221-18.863-11.972-21.396-22.838a9.997 9.997 0 00-.248-.88L71.742 380.9a9.989 9.989 0 00-3.155-4.586l-21.665-17.741c-8.236-6.738-12.442-17.086-11.25-27.68.015-.132.027-.264.037-.397l2.174-30.063a10 10 0 00-1.16-5.445l-13.059-24.362c-4.9-9.188-4.879-20.162.056-29.357.044-.081.086-.163.127-.245l13.626-27.165a9.996 9.996 0 001.012-5.475l-2.765-27.752c-.998-10.147 3.053-20.157 10.902-26.831L70.1 133.489a10.003 10.003 0 003.03-4.67l8.08-26.746c3.221-10.664 11.972-18.862 22.838-21.396.297-.069.59-.152.88-.248l26.173-8.688a9.989 9.989 0 004.586-3.155l17.742-21.666c6.738-8.235 17.089-12.439 27.68-11.249.132.015.264.027.396.037l30.062 2.174a10.036 10.036 0 005.445-1.16l24.363-13.058c9.187-4.9 20.162-4.88 29.356.056.081.043.163.086.246.127l27.165 13.626a9.987 9.987 0 005.475 1.012l27.751-2.765c10.146-1 20.157 3.053 26.831 10.902L378.511 70.1a9.996 9.996 0 004.671 3.03l26.745 8.08c10.664 3.221 18.862 11.973 21.396 22.838.069.297.152.59.248.88l8.688 26.173a9.996 9.996 0 003.155 4.586l21.666 17.741c8.236 6.738 12.441 17.085 11.249 27.68a8.733 8.733 0 00-.036.397l-2.174 30.063a10.008 10.008 0 001.159 5.445l13.059 24.363c4.901 9.19 4.88 20.164-.056 29.358z"/><path d="M212.602 201.516c-1.604-3.38-5.039-5.723-9.029-5.723h-52.837c-5.523 0-10 4.477-10 10v151.366c0 5.523 4.477 10 10 10h52.837a10 10 0 009.216-6.114c7.623 1.07 15.476 3.238 23.652 5.502 12.292 3.403 25.001 6.922 38.206 6.922h57.729c17.846 0 32.307-9.461 38.684-25.31 3.106-7.722 3.65-15.736 1.835-22.445 3.32-2.985 6.126-6.701 8.248-11.04 4.301-8.792 5.16-18.679 2.722-27.006 4.544-4.39 7.934-10.187 9.706-17.022 1.657-6.39 1.628-12.695.154-18.158 9.02-5.306 15.095-14.946 15.095-25.808 0-8.519-3.317-16.369-9.341-22.103-5.784-5.506-13.488-8.539-21.692-8.539l-81.371.002c-6.182-7.755-8.106-18.279-4.586-26.75 7.224-17.386 6.776-32.103-1.449-47.717-6.106-11.589-22.524-23.127-36.323-21.157-8.341 1.192-14.376 7.087-16.146 15.771-.521 2.555-.664 5.315-.829 8.511-.408 7.884-.968 18.682-7.774 31.721-4.613 8.839-6.152 17.93-7.51 25.951-1.945 11.49-2.888 17.025-9.197 19.146zm-51.866 14.277h32.837v131.366h-32.837zm80.783-30.085c1.165-6.881 2.369-13.997 5.521-20.034 8.823-16.904 9.57-31.325 10.017-39.941.119-2.295.231-4.463.453-5.553a.174.174 0 01.005-.022c3.469.048 12.006 4.731 15.171 10.739 5.478 10.396 5.66 18.723.676 30.721-4.495 10.818-4.157 23.371.289 34.532-4.865.677-8.613 4.842-8.613 9.893 0 5.522 4.478 10 10 10l102.749-.003c3.047 0 5.854 1.074 7.902 3.024 1.429 1.359 3.131 3.785 3.131 7.617 0 5.364-4.917 10.002-10.738 10.129l-25.739.56c-5.521.12-9.9 4.693-9.78 10.215a10 10 0 009.994 9.783c.073 0 .147 0 .222-.002l21.436-.466c.699 1.981 1.063 5.76-.409 10.089-1.253 3.682-4.616 9.858-13.076 9.858-5.522 0-10 4.477-10 10s4.478 10 10 10c1.516 0 3.004-.094 4.46-.279.124 2.83-.458 6.145-2.011 9.319-1.836 3.752-5.465 8.226-12.327 8.226-5.522 0-10 4.477-10 10s4.478 10 10 10a34.24 34.24 0 003.07-.137c-.026 1.919-.416 4.318-1.507 6.942-1.568 3.774-6.661 12.551-20.037 12.551h-57.729c-10.487 0-21.359-3.01-32.869-6.197-9.159-2.536-18.55-5.134-28.205-6.294V221.755c22.514-4.08 25.618-22.306 27.944-36.047zm14.483-109.707c5.523 0 10-4.477 10-10s-4.477-10-10-10h-.007c-5.523 0-9.996 4.477-9.996 10s4.48 10 10.003 10z"/></svg>